<svg xmlns="http://www.w3.org/2000/svg" xmlns:xlink="http://www.w3.org/1999/xlink" width="57" zoomAndPan="magnify" viewBox="0 0 42.75 39.749999" height="53" preserveAspectRatio="xMidYMid meet" version="1.0"><defs><clipPath id="e9c27c23c8"><path d="M 36 13 L 42.492188 13 L 42.492188 20 L 36 20 Z M 36 13 " clip-rule="nonzero"/></clipPath><clipPath id="a7f01272fa"><path d="M 0.0078125 7 L 37 7 L 37 39.5 L 0.0078125 39.5 Z M 0.0078125 7 " clip-rule="nonzero"/></clipPath></defs><path fill="#ff66c4" d="M 29.714844 5.949219 L 28.375 6.425781 C 28.375 7.289062 28.375 7.289062 28.375 8.152344 L 29.710938 8.628906 C 29.917969 9.132812 30.023438 9.386719 30.230469 9.886719 L 29.621094 11.167969 C 30.230469 11.777344 30.234375 11.78125 30.84375 12.390625 L 32.125 11.78125 C 32.625 11.992188 32.878906 12.097656 33.382812 12.304688 L 33.855469 13.640625 C 34.71875 13.640625 34.71875 13.640625 35.582031 13.640625 L 36.058594 12.308594 C 36.5625 12.097656 36.816406 11.996094 37.320312 11.785156 L 38.597656 12.394531 C 39.210938 11.785156 39.210938 11.785156 39.820312 11.175781 L 39.210938 9.894531 C 39.421875 9.390625 39.527344 9.136719 39.734375 8.636719 L 41.070312 8.164062 C 41.070312 7.300781 41.070312 7.296875 41.070312 6.433594 L 39.738281 5.957031 C 39.53125 5.457031 39.425781 5.203125 39.214844 4.699219 L 39.824219 3.421875 C 39.214844 2.808594 39.214844 2.808594 38.605469 2.199219 L 37.324219 2.804688 C 36.820312 2.597656 36.570312 2.492188 36.066406 2.285156 L 35.59375 0.949219 C 34.730469 0.949219 34.726562 0.949219 33.863281 0.945312 L 33.386719 2.28125 C 32.886719 2.488281 32.632812 2.59375 32.128906 2.800781 L 30.847656 2.191406 C 30.238281 2.800781 30.238281 2.804688 29.625 3.414062 L 30.234375 4.695312 C 30.027344 5.195312 29.921875 5.449219 29.714844 5.949219 Z M 34.726562 4.632812 C 36.195312 4.632812 37.386719 5.824219 37.382812 7.292969 C 37.382812 8.765625 36.191406 9.953125 34.722656 9.953125 C 33.25 9.953125 32.0625 8.761719 32.0625 7.292969 C 32.0625 5.824219 33.253906 4.628906 34.726562 4.632812 Z M 34.726562 4.632812 " fill-opacity="1" fill-rule="nonzero"/><path fill="#ff66c4" d="M 23.683594 14.335938 C 23.683594 14.824219 23.683594 14.824219 23.679688 15.3125 L 24.433594 15.582031 C 24.550781 15.867188 24.609375 16.007812 24.726562 16.292969 L 24.382812 17.015625 C 24.726562 17.359375 24.730469 17.359375 25.074219 17.707031 L 25.796875 17.363281 C 26.082031 17.480469 26.222656 17.539062 26.507812 17.65625 L 26.773438 18.410156 C 27.261719 18.410156 27.265625 18.410156 27.75 18.414062 L 28.019531 17.660156 C 28.304688 17.542969 28.445312 17.484375 28.730469 17.367188 L 29.453125 17.710938 C 29.796875 17.367188 29.800781 17.363281 30.144531 17.019531 L 29.800781 16.296875 C 29.917969 16.011719 29.980469 15.871094 30.097656 15.585938 L 30.851562 15.320312 C 30.851562 14.832031 30.851562 14.832031 30.851562 14.34375 L 30.097656 14.074219 C 29.980469 13.789062 29.921875 13.648438 29.804688 13.363281 L 30.148438 12.640625 C 29.804688 12.296875 29.804688 12.292969 29.457031 11.949219 L 28.734375 12.292969 C 28.453125 12.175781 28.308594 12.113281 28.023438 11.996094 L 27.757812 11.242188 C 27.269531 11.242188 27.269531 11.242188 26.78125 11.242188 L 26.511719 11.996094 C 26.226562 12.113281 26.085938 12.171875 25.800781 12.289062 L 25.078125 11.945312 C 24.734375 12.289062 24.734375 12.289062 24.386719 12.636719 L 24.730469 13.359375 C 24.613281 13.640625 24.554688 13.785156 24.4375 14.070312 Z M 27.265625 13.324219 C 28.097656 13.324219 28.769531 13.996094 28.769531 14.828125 C 28.769531 15.65625 28.09375 16.332031 27.265625 16.328125 C 26.433594 16.328125 25.761719 15.65625 25.761719 14.824219 C 25.761719 13.996094 26.4375 13.324219 27.265625 13.324219 Z M 27.265625 13.324219 " fill-opacity="1" fill-rule="nonzero"/><path fill="#ff66c4" d="M 19.566406 18.078125 C 19.566406 18.40625 19.566406 18.40625 19.566406 18.734375 L 20.074219 18.914062 C 20.152344 19.105469 20.191406 19.203125 20.269531 19.390625 L 20.039062 19.878906 C 20.269531 20.109375 20.269531 20.109375 20.503906 20.34375 L 20.988281 20.109375 C 21.179688 20.191406 21.277344 20.230469 21.46875 20.308594 L 21.648438 20.816406 C 21.972656 20.816406 21.976562 20.816406 22.304688 20.816406 L 22.484375 20.308594 C 22.675781 20.230469 22.769531 20.191406 22.960938 20.113281 L 23.449219 20.34375 C 23.679688 20.109375 23.679688 20.109375 23.910156 19.878906 L 23.679688 19.394531 C 23.757812 19.203125 23.800781 19.105469 23.878906 18.914062 L 24.386719 18.734375 C 24.386719 18.410156 24.386719 18.40625 24.386719 18.078125 L 23.878906 17.898438 C 23.800781 17.707031 23.761719 17.609375 23.683594 17.421875 L 23.914062 16.933594 C 23.679688 16.703125 23.679688 16.703125 23.449219 16.472656 L 22.960938 16.703125 C 22.773438 16.621094 22.675781 16.582031 22.484375 16.503906 L 22.304688 15.996094 C 21.976562 15.996094 21.976562 15.996094 21.648438 15.996094 L 21.46875 16.503906 C 21.277344 16.582031 21.179688 16.621094 20.992188 16.699219 L 20.503906 16.46875 C 20.273438 16.703125 20.273438 16.703125 20.039062 16.933594 L 20.269531 17.421875 C 20.191406 17.609375 20.152344 17.707031 20.074219 17.898438 Z M 21.976562 17.398438 C 22.53125 17.398438 22.984375 17.851562 22.984375 18.410156 C 22.984375 18.964844 22.53125 19.417969 21.972656 19.417969 C 21.417969 19.417969 20.964844 18.964844 20.964844 18.40625 C 20.964844 17.847656 21.417969 17.398438 21.976562 17.398438 Z M 21.976562 17.398438 " fill-opacity="1" fill-rule="nonzero"/><path fill="#ff66c4" d="M 35.785156 17.101562 C 35.785156 16.773438 35.785156 16.773438 35.785156 16.445312 L 35.277344 16.265625 C 35.199219 16.074219 35.15625 15.976562 35.078125 15.785156 L 35.308594 15.300781 C 35.078125 15.066406 35.078125 15.066406 34.847656 14.835938 L 34.359375 15.066406 C 34.167969 14.988281 34.074219 14.949219 33.882812 14.867188 L 33.703125 14.359375 C 33.375 14.359375 33.375 14.359375 33.046875 14.359375 L 32.867188 14.867188 C 32.675781 14.949219 32.578125 14.988281 32.386719 15.066406 L 31.902344 14.835938 C 31.671875 15.066406 31.671875 15.066406 31.4375 15.300781 L 31.667969 15.785156 C 31.589844 15.976562 31.550781 16.070312 31.46875 16.261719 L 30.964844 16.441406 C 30.964844 16.769531 30.964844 16.769531 30.964844 17.097656 L 31.46875 17.28125 C 31.550781 17.46875 31.589844 17.566406 31.667969 17.757812 L 31.4375 18.242188 C 31.667969 18.476562 31.667969 18.476562 31.902344 18.707031 L 32.386719 18.476562 C 32.578125 18.554688 32.671875 18.59375 32.863281 18.675781 L 33.042969 19.183594 C 33.371094 19.183594 33.371094 19.183594 33.699219 19.183594 L 33.882812 18.675781 C 34.074219 18.597656 34.167969 18.554688 34.359375 18.476562 L 34.84375 18.707031 C 35.078125 18.476562 35.078125 18.476562 35.308594 18.246094 L 35.078125 17.757812 C 35.15625 17.566406 35.195312 17.472656 35.277344 17.28125 Z M 33.375 17.78125 C 32.816406 17.78125 32.363281 17.328125 32.363281 16.769531 C 32.363281 16.210938 32.816406 15.761719 33.375 15.761719 C 33.933594 15.761719 34.382812 16.214844 34.382812 16.769531 C 34.382812 17.328125 33.933594 17.78125 33.375 17.78125 Z M 33.375 17.78125 " fill-opacity="1" fill-rule="nonzero"/><path fill="#ff66c4" d="M 23.144531 10.089844 L 22.914062 10.578125 C 23.144531 10.808594 23.144531 10.808594 23.378906 11.039062 L 23.863281 10.808594 C 24.054688 10.890625 24.148438 10.929688 24.339844 11.007812 L 24.519531 11.515625 C 24.847656 11.515625 24.847656 11.515625 25.175781 11.515625 L 25.355469 11.007812 C 25.546875 10.929688 25.644531 10.890625 25.835938 10.8125 L 26.320312 11.042969 C 26.554688 10.808594 26.554688 10.808594 26.785156 10.578125 L 26.554688 10.09375 C 26.632812 9.902344 26.671875 9.804688 26.753906 9.613281 L 27.261719 9.433594 C 27.261719 9.105469 27.261719 9.105469 27.261719 8.777344 L 26.753906 8.597656 C 26.675781 8.40625 26.632812 8.308594 26.554688 8.121094 L 26.785156 7.632812 C 26.554688 7.402344 26.554688 7.402344 26.320312 7.171875 L 25.835938 7.402344 C 25.644531 7.320312 25.550781 7.28125 25.359375 7.203125 L 25.179688 6.695312 C 24.851562 6.695312 24.851562 6.695312 24.523438 6.695312 L 24.34375 7.203125 C 24.152344 7.28125 24.054688 7.320312 23.863281 7.398438 L 23.378906 7.167969 C 23.144531 7.402344 23.144531 7.402344 22.914062 7.632812 L 23.144531 8.117188 C 23.066406 8.308594 23.027344 8.40625 22.945312 8.597656 L 22.4375 8.777344 C 22.4375 9.105469 22.4375 9.105469 22.4375 9.433594 L 22.945312 9.613281 C 23.023438 9.804688 23.066406 9.902344 23.144531 10.089844 Z M 24.851562 8.097656 C 25.40625 8.097656 25.859375 8.550781 25.859375 9.105469 C 25.859375 9.664062 25.40625 10.117188 24.847656 10.117188 C 24.292969 10.117188 23.839844 9.664062 23.839844 9.105469 C 23.839844 8.546875 24.292969 8.09375 24.851562 8.097656 Z M 24.851562 8.097656 " fill-opacity="1" fill-rule="nonzero"/><path fill="#ff66c4" d="M 23.964844 4.222656 L 23.679688 4.824219 C 23.964844 5.113281 23.96875 5.113281 24.253906 5.402344 L 24.859375 5.117188 C 25.097656 5.214844 25.214844 5.265625 25.453125 5.363281 L 25.675781 5.996094 C 26.085938 5.996094 26.085938 5.996094 26.492188 5.996094 L 26.71875 5.363281 C 26.953125 5.265625 27.074219 5.214844 27.3125 5.117188 L 27.914062 5.40625 C 28.203125 5.117188 28.203125 5.117188 28.492188 4.828125 L 28.207031 4.226562 C 28.304688 3.988281 28.355469 3.867188 28.453125 3.632812 L 29.082031 3.40625 C 29.082031 3 29.082031 3 29.082031 2.59375 L 28.453125 2.367188 C 28.355469 2.132812 28.304688 2.011719 28.207031 1.773438 L 28.496094 1.167969 C 28.207031 0.882812 28.207031 0.882812 27.917969 0.59375 L 27.3125 0.878906 C 27.078125 0.78125 26.957031 0.730469 26.722656 0.632812 L 26.496094 0 C 26.089844 0 26.089844 0 25.683594 0 L 25.457031 0.628906 C 25.21875 0.726562 25.101562 0.777344 24.863281 0.875 L 24.257812 0.589844 C 23.96875 0.875 23.96875 0.878906 23.683594 1.164062 L 23.96875 1.769531 C 23.871094 2.007812 23.820312 2.125 23.722656 2.363281 L 23.089844 2.585938 C 23.089844 2.992188 23.089844 2.996094 23.089844 3.402344 L 23.722656 3.628906 C 23.820312 3.863281 23.871094 3.984375 23.964844 4.222656 Z M 26.089844 1.742188 C 26.78125 1.742188 27.34375 2.304688 27.34375 3 C 27.34375 3.691406 26.78125 4.253906 26.085938 4.253906 C 25.394531 4.253906 24.832031 3.691406 24.832031 2.996094 C 24.832031 2.300781 25.394531 1.738281 26.089844 1.742188 Z M 26.089844 1.742188 " fill-opacity="1" fill-rule="nonzero"/><g clip-path="url(#e9c27c23c8)"><path fill="#ff66c4" d="M 42.707031 16.753906 C 42.707031 16.347656 42.707031 16.34375 42.707031 15.9375 L 42.074219 15.714844 C 41.976562 15.476562 41.925781 15.355469 41.828125 15.121094 L 42.117188 14.515625 C 41.828125 14.226562 41.828125 14.226562 41.542969 13.9375 L 40.9375 14.222656 C 40.699219 14.125 40.578125 14.078125 40.34375 13.976562 L 40.121094 13.347656 C 39.710938 13.347656 39.710938 13.347656 39.304688 13.347656 L 39.078125 13.976562 C 38.84375 14.074219 38.722656 14.125 38.484375 14.222656 L 37.882812 13.933594 C 37.59375 14.222656 37.59375 14.222656 37.304688 14.511719 L 37.589844 15.117188 C 37.492188 15.351562 37.441406 15.472656 37.34375 15.710938 L 36.714844 15.933594 C 36.714844 16.339844 36.714844 16.339844 36.714844 16.75 L 37.34375 16.972656 C 37.441406 17.210938 37.492188 17.328125 37.589844 17.566406 L 37.300781 18.171875 C 37.589844 18.460938 37.589844 18.460938 37.878906 18.75 L 38.484375 18.460938 C 38.71875 18.5625 38.839844 18.609375 39.078125 18.710938 L 39.300781 19.339844 C 39.707031 19.339844 39.707031 19.339844 40.117188 19.339844 L 40.339844 18.710938 C 40.578125 18.613281 40.695312 18.5625 40.933594 18.464844 L 41.539062 18.75 C 41.828125 18.464844 41.828125 18.460938 42.117188 18.175781 L 41.828125 17.570312 C 41.925781 17.332031 41.976562 17.214844 42.074219 16.976562 Z M 39.707031 17.601562 C 39.015625 17.601562 38.453125 17.035156 38.453125 16.34375 C 38.453125 15.648438 39.015625 15.085938 39.710938 15.085938 C 40.402344 15.085938 40.964844 15.652344 40.964844 16.34375 C 40.964844 17.039062 40.402344 17.601562 39.707031 17.601562 Z M 39.707031 17.601562 " fill-opacity="1" fill-rule="nonzero"/></g><path fill="#ff66c4" d="M 19.417969 19.804688 L 19.125 19.941406 C 19.011719 19.894531 18.953125 19.871094 18.839844 19.824219 L 18.734375 19.519531 C 18.539062 19.519531 18.539062 19.519531 18.339844 19.519531 L 18.234375 19.824219 C 18.121094 19.871094 18.0625 19.894531 17.949219 19.941406 L 17.660156 19.804688 C 17.519531 19.941406 17.519531 19.941406 17.382812 20.082031 L 17.519531 20.371094 C 17.472656 20.484375 17.449219 20.542969 17.402344 20.65625 L 17.097656 20.765625 C 17.097656 20.960938 17.097656 20.960938 17.097656 21.15625 L 17.398438 21.261719 C 17.445312 21.378906 17.46875 21.433594 17.519531 21.546875 L 17.378906 21.839844 C 17.515625 21.976562 17.515625 21.980469 17.65625 22.117188 L 17.945312 21.980469 C 18.058594 22.027344 18.117188 22.050781 18.230469 22.097656 L 18.339844 22.402344 C 18.535156 22.402344 18.535156 22.402344 18.730469 22.402344 L 18.839844 22.097656 C 18.953125 22.050781 19.011719 22.027344 19.125 21.980469 L 19.414062 22.117188 C 19.550781 21.980469 19.554688 21.980469 19.691406 21.839844 L 19.554688 21.550781 C 19.601562 21.4375 19.625 21.378906 19.671875 21.265625 L 19.976562 21.160156 C 19.976562 20.960938 19.976562 20.960938 19.976562 20.765625 L 19.671875 20.660156 C 19.625 20.546875 19.601562 20.488281 19.554688 20.375 L 19.691406 20.085938 C 19.554688 19.941406 19.554688 19.941406 19.417969 19.804688 Z M 18.535156 21.566406 C 18.203125 21.566406 17.933594 21.292969 17.933594 20.960938 C 17.933594 20.625 18.203125 20.355469 18.535156 20.355469 C 18.871094 20.355469 19.140625 20.625 19.140625 20.960938 C 19.140625 21.292969 18.867188 21.566406 18.535156 21.566406 Z M 18.535156 21.566406 " fill-opacity="1" fill-rule="nonzero"/><path fill="#ff66c4" d="M 27.496094 20.695312 C 27.496094 20.496094 27.496094 20.496094 27.496094 20.300781 L 27.195312 20.195312 C 27.148438 20.082031 27.125 20.023438 27.074219 19.910156 L 27.214844 19.617188 C 27.074219 19.480469 27.074219 19.480469 26.9375 19.339844 L 26.648438 19.480469 C 26.535156 19.433594 26.476562 19.40625 26.363281 19.359375 L 26.253906 19.058594 C 26.058594 19.058594 26.058594 19.058594 25.863281 19.058594 L 25.753906 19.359375 C 25.640625 19.40625 25.582031 19.429688 25.46875 19.476562 L 25.179688 19.339844 C 25.042969 19.476562 25.039062 19.476562 24.902344 19.617188 L 25.039062 19.90625 C 24.992188 20.019531 24.96875 20.078125 24.921875 20.191406 L 24.617188 20.300781 C 24.617188 20.496094 24.617188 20.496094 24.617188 20.691406 L 24.921875 20.800781 C 24.96875 20.914062 24.992188 20.972656 25.039062 21.085938 L 24.902344 21.375 C 25.039062 21.511719 25.039062 21.515625 25.179688 21.652344 L 25.46875 21.515625 C 25.582031 21.5625 25.640625 21.585938 25.753906 21.632812 L 25.859375 21.9375 C 26.058594 21.9375 26.058594 21.9375 26.253906 21.9375 L 26.359375 21.632812 C 26.472656 21.585938 26.53125 21.5625 26.644531 21.515625 L 26.933594 21.652344 C 27.074219 21.515625 27.074219 21.515625 27.214844 21.375 L 27.074219 21.085938 C 27.121094 20.972656 27.148438 20.914062 27.195312 20.800781 Z M 26.058594 21.097656 C 25.722656 21.097656 25.453125 20.828125 25.453125 20.496094 C 25.453125 20.160156 25.722656 19.890625 26.058594 19.890625 C 26.390625 19.890625 26.660156 20.160156 26.660156 20.496094 C 26.660156 20.832031 26.390625 21.097656 26.058594 21.097656 Z M 26.058594 21.097656 " fill-opacity="1" fill-rule="nonzero"/><path fill="#ff66c4" d="M 21.117188 12.949219 C 21.003906 12.996094 20.945312 13.019531 20.832031 13.070312 L 20.542969 12.929688 C 20.402344 13.070312 20.402344 13.070312 20.265625 13.207031 L 20.402344 13.5 C 20.355469 13.613281 20.332031 13.671875 20.285156 13.785156 L 19.980469 13.890625 C 19.980469 14.085938 19.980469 14.085938 19.980469 14.285156 L 20.28125 14.390625 C 20.328125 14.503906 20.351562 14.5625 20.402344 14.675781 L 20.261719 14.964844 C 20.402344 15.105469 20.402344 15.105469 20.539062 15.242188 L 20.832031 15.105469 C 20.945312 15.152344 21 15.175781 21.117188 15.222656 L 21.222656 15.527344 C 21.417969 15.527344 21.417969 15.527344 21.613281 15.527344 L 21.722656 15.226562 C 21.835938 15.179688 21.894531 15.15625 22.007812 15.105469 L 22.296875 15.246094 C 22.433594 15.105469 22.4375 15.105469 22.574219 14.96875 L 22.4375 14.675781 C 22.484375 14.5625 22.507812 14.503906 22.554688 14.390625 L 22.859375 14.285156 C 22.859375 14.089844 22.859375 14.089844 22.859375 13.890625 L 22.554688 13.785156 C 22.507812 13.671875 22.484375 13.613281 22.4375 13.5 L 22.578125 13.210938 C 22.4375 13.070312 22.4375 13.070312 22.296875 12.933594 L 22.007812 13.070312 C 21.894531 13.023438 21.835938 13 21.722656 12.953125 L 21.617188 12.648438 C 21.421875 12.648438 21.421875 12.648438 21.222656 12.648438 Z M 22.023438 14.089844 C 22.023438 14.421875 21.753906 14.691406 21.417969 14.691406 C 21.085938 14.691406 20.816406 14.421875 20.816406 14.085938 C 20.816406 13.753906 21.085938 13.484375 21.421875 13.484375 C 21.753906 13.484375 22.023438 13.753906 22.023438 14.089844 Z M 22.023438 14.089844 " fill-opacity="1" fill-rule="nonzero"/><path fill="#ff66c4" d="M 17.953125 11.882812 L 4.941406 11.875 C 4.703125 11.875 4.511719 12.066406 4.511719 12.304688 L 4.5 27.230469 C 4.5 27.46875 4.691406 27.660156 4.929688 27.660156 L 32.25 27.679688 C 32.488281 27.679688 32.683594 27.488281 32.683594 27.25 L 32.6875 19.996094 L 31.824219 19.996094 L 31.820312 20.179688 L 31.816406 26.816406 L 5.363281 26.796875 L 5.371094 15.828125 L 16.203125 15.835938 L 18.789062 15.839844 L 18.789062 14.972656 L 17.78125 14.972656 C 17.78125 14.972656 17.785156 14.972656 17.785156 14.972656 L 5.375 14.964844 L 5.375 12.738281 L 18.742188 12.75 C 18.742188 12.746094 18.742188 12.746094 18.742188 12.746094 L 19.480469 12.746094 L 19.480469 11.882812 Z M 17.953125 11.882812 " fill-opacity="1" fill-rule="nonzero"/><g clip-path="url(#a7f01272fa)"><path fill="#ff66c4" d="M 34.929688 19.320312 L 34.921875 29.058594 L 1.253906 29.035156 L 1.265625 10.046875 C 1.265625 9.304688 1.871094 8.703125 2.613281 8.707031 L 20.65625 8.71875 L 20.65625 8.726562 L 21.539062 8.726562 L 21.539062 7.484375 L 2.613281 7.472656 C 1.191406 7.46875 0.0351562 8.625 0.03125 10.046875 L 0.0195312 32.269531 C 0.015625 33.691406 1.171875 34.851562 2.59375 34.851562 L 13.304688 34.859375 L 12.191406 38.046875 L 9.191406 38.046875 C 8.851562 38.046875 8.574219 38.320312 8.574219 38.664062 C 8.574219 39.003906 8.851562 39.28125 9.191406 39.28125 L 26.144531 39.292969 C 26.484375 39.292969 26.761719 39.015625 26.761719 38.675781 C 26.761719 38.335938 26.484375 38.058594 26.144531 38.058594 L 22.824219 38.054688 L 21.714844 34.863281 L 33.574219 34.875 C 34.996094 34.875 36.152344 33.71875 36.152344 32.296875 L 36.164062 19.207031 L 34.933594 19.203125 Z M 21.5 38.003906 L 13.515625 38 L 14.609375 34.867188 L 20.410156 34.871094 Z M 34.917969 32.296875 C 34.917969 33.039062 34.316406 33.640625 33.574219 33.636719 L 2.59375 33.617188 C 1.851562 33.617188 1.25 33.011719 1.253906 32.269531 L 1.253906 30.265625 L 34.921875 30.289062 Z M 34.917969 32.296875 " fill-opacity="1" fill-rule="nonzero"/></g><path fill="#ff66c4" d="M 7.316406 18.285156 L 15.980469 18.285156 L 15.980469 18.777344 L 7.316406 18.777344 Z M 7.316406 18.285156 " fill-opacity="1" fill-rule="nonzero"/><path fill="#ff66c4" d="M 7.316406 21.121094 L 15.976562 21.121094 L 15.976562 21.617188 L 7.316406 21.617188 Z M 7.316406 21.121094 " fill-opacity="1" fill-rule="nonzero"/><path fill="#ff66c4" d="M 7.3125 24.207031 L 15.976562 24.207031 L 15.976562 24.699219 L 7.3125 24.699219 Z M 7.3125 24.207031 " fill-opacity="1" fill-rule="nonzero"/><path fill="#ff66c4" d="M 18.253906 31.976562 C 18.253906 32.222656 18.164062 32.433594 17.992188 32.609375 C 17.816406 32.78125 17.605469 32.871094 17.359375 32.871094 C 17.109375 32.871094 16.898438 32.78125 16.726562 32.609375 C 16.550781 32.433594 16.464844 32.222656 16.464844 31.976562 C 16.464844 31.726562 16.550781 31.515625 16.726562 31.34375 C 16.898438 31.167969 17.109375 31.082031 17.359375 31.082031 C 17.605469 31.082031 17.816406 31.167969 17.992188 31.34375 C 18.164062 31.515625 18.253906 31.726562 18.253906 31.976562 Z M 18.253906 31.976562 " fill-opacity="1" fill-rule="nonzero"/></svg>