<svg xmlns="http://www.w3.org/2000/svg" xmlns:xlink="http://www.w3.org/1999/xlink" width="262" zoomAndPan="magnify" viewBox="0 0 196.5 87.749997" height="117" preserveAspectRatio="xMidYMid meet" version="1.0"><defs><g/><clipPath id="a4a5da3cab"><path d="M 0.03125 0 L 195.972656 0 L 195.972656 87.5 L 0.03125 87.5 Z M 0.03125 0 " clip-rule="nonzero"/></clipPath><clipPath id="ad2c780b64"><path d="M 2.160156 23.878906 L 38.4375 23.878906 L 38.4375 61.921875 L 2.160156 61.921875 Z M 2.160156 23.878906 " clip-rule="nonzero"/></clipPath><clipPath id="e7f5e79560"><path d="M 23.210938 41.796875 L 6.855469 41.796875 C 6.222656 41.796875 5.761719 41.191406 5.933594 40.578125 L 10.425781 24.574219 C 10.539062 24.164062 10.917969 23.878906 11.347656 23.878906 L 27.703125 23.878906 C 28.335938 23.878906 28.796875 24.484375 28.625 25.09375 L 24.132812 41.097656 C 24.019531 41.511719 23.640625 41.796875 23.210938 41.796875 Z M 12.589844 53.875 L 14.902344 45.636719 C 15.070312 45.023438 14.613281 44.417969 13.980469 44.417969 L 5.570312 44.417969 C 5.140625 44.417969 4.765625 44.703125 4.648438 45.117188 L 2.335938 53.359375 C 2.164062 53.96875 2.625 54.574219 3.257812 54.574219 L 11.667969 54.574219 C 12.097656 54.574219 12.472656 54.289062 12.589844 53.875 Z M 16.84375 45.117188 L 12.351562 61.121094 C 12.183594 61.734375 12.640625 62.339844 13.273438 62.339844 L 29.632812 62.339844 C 30.0625 62.339844 30.4375 62.050781 30.554688 61.640625 L 35.042969 45.636719 C 35.214844 45.023438 34.757812 44.417969 34.121094 44.417969 L 17.765625 44.417969 C 17.335938 44.417969 16.960938 44.703125 16.84375 45.117188 Z M 28.390625 32.339844 L 26.078125 40.578125 C 25.90625 41.191406 26.363281 41.796875 27 41.796875 L 35.40625 41.796875 C 35.835938 41.796875 36.214844 41.511719 36.328125 41.097656 L 38.640625 32.855469 C 38.8125 32.246094 38.355469 31.640625 37.71875 31.640625 L 29.3125 31.640625 C 28.882812 31.640625 28.503906 31.925781 28.390625 32.339844 Z M 28.390625 32.339844 " clip-rule="nonzero"/></clipPath></defs><g clip-path="url(#a4a5da3cab)"><path fill="#ffffff" d="M 0.03125 0 L 195.972656 0 L 195.972656 87.5 L 0.03125 87.5 Z M 0.03125 0 " fill-opacity="1" fill-rule="nonzero"/><path fill="#000000" d="M 0.03125 0 L 195.972656 0 L 195.972656 87.5 L 0.03125 87.5 Z M 0.03125 0 " fill-opacity="1" fill-rule="nonzero"/></g><g clip-path="url(#ad2c780b64)"><g clip-path="url(#e7f5e79560)"><path fill="#ffffff" d="M 2.164062 23.878906 L 2.164062 61.921875 L 38.4375 61.921875 L 38.4375 23.878906 Z M 2.164062 23.878906 " fill-opacity="1" fill-rule="nonzero"/></g></g><g fill="#ffffff" fill-opacity="1"><g transform="translate(39.695154, 49.861543)"><g><path d="M 3.15625 0.109375 C 2.875 0.109375 2.632812 0.015625 2.4375 -0.171875 C 2.25 -0.367188 2.15625 -0.609375 2.15625 -0.890625 L 2.15625 -14.625 C 2.15625 -14.90625 2.25 -15.144531 2.4375 -15.34375 C 2.632812 -15.539062 2.875 -15.640625 3.15625 -15.640625 C 3.4375 -15.640625 3.675781 -15.539062 3.875 -15.34375 C 4.082031 -15.144531 4.1875 -14.90625 4.1875 -14.625 L 4.1875 -0.890625 C 4.1875 -0.609375 4.082031 -0.367188 3.875 -0.171875 C 3.675781 0.015625 3.4375 0.109375 3.15625 0.109375 Z M 3.15625 0.109375 "/></g></g></g><g fill="#ffffff" fill-opacity="1"><g transform="translate(46.036461, 49.861543)"><g><path d="M 7.015625 0.21875 C 5.941406 0.21875 4.953125 -0.015625 4.046875 -0.484375 C 3.140625 -0.960938 2.414062 -1.644531 1.875 -2.53125 C 1.332031 -3.425781 1.0625 -4.472656 1.0625 -5.671875 C 1.0625 -6.867188 1.332031 -7.910156 1.875 -8.796875 C 2.414062 -9.691406 3.140625 -10.375 4.046875 -10.84375 C 4.953125 -11.320312 5.941406 -11.5625 7.015625 -11.5625 C 7.796875 -11.5625 8.472656 -11.460938 9.046875 -11.265625 C 9.617188 -11.066406 10.148438 -10.8125 10.640625 -10.5 C 10.929688 -10.3125 11.078125 -10.050781 11.078125 -9.71875 C 11.078125 -9.5 10.988281 -9.296875 10.8125 -9.109375 C 10.644531 -8.921875 10.453125 -8.828125 10.234375 -8.828125 C 10.066406 -8.828125 9.90625 -8.875 9.75 -8.96875 C 9.257812 -9.21875 8.835938 -9.394531 8.484375 -9.5 C 8.140625 -9.613281 7.707031 -9.671875 7.1875 -9.671875 C 5.90625 -9.671875 4.898438 -9.300781 4.171875 -8.5625 C 3.453125 -7.832031 3.09375 -6.867188 3.09375 -5.671875 C 3.09375 -4.472656 3.453125 -3.503906 4.171875 -2.765625 C 4.898438 -2.035156 5.90625 -1.671875 7.1875 -1.671875 C 7.707031 -1.671875 8.140625 -1.722656 8.484375 -1.828125 C 8.835938 -1.941406 9.257812 -2.125 9.75 -2.375 C 9.90625 -2.46875 10.066406 -2.515625 10.234375 -2.515625 C 10.453125 -2.515625 10.644531 -2.421875 10.8125 -2.234375 C 10.988281 -2.046875 11.078125 -1.84375 11.078125 -1.625 C 11.078125 -1.300781 10.929688 -1.039062 10.640625 -0.84375 C 10.148438 -0.53125 9.617188 -0.273438 9.046875 -0.078125 C 8.472656 0.117188 7.796875 0.21875 7.015625 0.21875 Z M 7.015625 0.21875 "/></g></g></g><g fill="#ffffff" fill-opacity="1"><g transform="translate(57.895819, 49.861543)"><g><path d="M 6.765625 0.21875 C 5.617188 0.21875 4.613281 -0.0234375 3.75 -0.515625 C 2.894531 -1.003906 2.234375 -1.695312 1.765625 -2.59375 C 1.296875 -3.488281 1.0625 -4.515625 1.0625 -5.671875 C 1.0625 -6.828125 1.296875 -7.851562 1.765625 -8.75 C 2.234375 -9.644531 2.894531 -10.335938 3.75 -10.828125 C 4.613281 -11.316406 5.617188 -11.5625 6.765625 -11.5625 C 7.890625 -11.5625 8.878906 -11.316406 9.734375 -10.828125 C 10.597656 -10.335938 11.265625 -9.644531 11.734375 -8.75 C 12.210938 -7.851562 12.453125 -6.828125 12.453125 -5.671875 C 12.453125 -4.515625 12.210938 -3.488281 11.734375 -2.59375 C 11.265625 -1.695312 10.597656 -1.003906 9.734375 -0.515625 C 8.878906 -0.0234375 7.890625 0.21875 6.765625 0.21875 Z M 6.765625 -1.625 C 7.367188 -1.625 7.945312 -1.765625 8.5 -2.046875 C 9.0625 -2.328125 9.523438 -2.769531 9.890625 -3.375 C 10.253906 -3.988281 10.4375 -4.765625 10.4375 -5.703125 C 10.4375 -6.617188 10.253906 -7.378906 9.890625 -7.984375 C 9.523438 -8.597656 9.0625 -9.039062 8.5 -9.3125 C 7.945312 -9.582031 7.367188 -9.71875 6.765625 -9.71875 C 6.140625 -9.71875 5.546875 -9.582031 4.984375 -9.3125 C 4.429688 -9.039062 3.976562 -8.597656 3.625 -7.984375 C 3.269531 -7.378906 3.09375 -6.617188 3.09375 -5.703125 C 3.09375 -4.765625 3.269531 -3.988281 3.625 -3.375 C 3.976562 -2.769531 4.429688 -2.328125 4.984375 -2.046875 C 5.546875 -1.765625 6.140625 -1.625 6.765625 -1.625 Z M 6.765625 -1.625 "/></g></g></g><g fill="#ffffff" fill-opacity="1"><g transform="translate(71.423946, 49.861543)"><g><path d="M 2.765625 0.109375 C 2.484375 0.109375 2.242188 0.015625 2.046875 -0.171875 C 1.847656 -0.367188 1.75 -0.609375 1.75 -0.890625 L 1.75 -10.4375 C 1.75 -10.71875 1.847656 -10.957031 2.046875 -11.15625 C 2.242188 -11.351562 2.484375 -11.453125 2.765625 -11.453125 C 3.046875 -11.453125 3.285156 -11.351562 3.484375 -11.15625 C 3.679688 -10.957031 3.78125 -10.71875 3.78125 -10.4375 L 3.78125 -9.515625 C 4.34375 -10.140625 4.953125 -10.632812 5.609375 -11 C 6.265625 -11.375 7.035156 -11.5625 7.921875 -11.5625 C 8.734375 -11.5625 9.441406 -11.367188 10.046875 -10.984375 C 10.648438 -10.597656 11.109375 -10.070312 11.421875 -9.40625 C 11.742188 -8.738281 11.90625 -8.003906 11.90625 -7.203125 L 11.90625 -0.890625 C 11.90625 -0.609375 11.800781 -0.367188 11.59375 -0.171875 C 11.394531 0.015625 11.15625 0.109375 10.875 0.109375 C 10.59375 0.109375 10.351562 0.015625 10.15625 -0.171875 C 9.96875 -0.367188 9.875 -0.609375 9.875 -0.890625 L 9.875 -6.984375 C 9.875 -8.796875 9.0625 -9.703125 7.4375 -9.703125 C 6.6875 -9.703125 6.019531 -9.507812 5.4375 -9.125 C 4.851562 -8.738281 4.300781 -8.21875 3.78125 -7.5625 L 3.78125 -0.890625 C 3.78125 -0.609375 3.679688 -0.367188 3.484375 -0.171875 C 3.285156 0.015625 3.046875 0.109375 2.765625 0.109375 Z M 2.765625 0.109375 "/></g></g></g><g fill="#ffffff" fill-opacity="1"><g transform="translate(84.97432, 49.861543)"><g><path d="M 2.71875 -13.65625 C 2.40625 -13.65625 2.132812 -13.765625 1.90625 -13.984375 C 1.6875 -14.210938 1.578125 -14.484375 1.578125 -14.796875 L 1.578125 -14.890625 C 1.578125 -15.203125 1.6875 -15.46875 1.90625 -15.6875 C 2.132812 -15.90625 2.40625 -16.015625 2.71875 -16.015625 L 2.84375 -16.015625 C 3.15625 -16.015625 3.421875 -15.90625 3.640625 -15.6875 C 3.867188 -15.46875 3.984375 -15.203125 3.984375 -14.890625 L 3.984375 -14.796875 C 3.984375 -14.484375 3.867188 -14.210938 3.640625 -13.984375 C 3.421875 -13.765625 3.15625 -13.65625 2.84375 -13.65625 Z M 2.765625 0.109375 C 2.484375 0.109375 2.242188 0.015625 2.046875 -0.171875 C 1.847656 -0.367188 1.75 -0.609375 1.75 -0.890625 L 1.75 -10.4375 C 1.75 -10.71875 1.847656 -10.957031 2.046875 -11.15625 C 2.242188 -11.351562 2.484375 -11.453125 2.765625 -11.453125 C 3.054688 -11.453125 3.296875 -11.351562 3.484375 -11.15625 C 3.679688 -10.96875 3.78125 -10.726562 3.78125 -10.4375 L 3.78125 -0.890625 C 3.78125 -0.609375 3.679688 -0.367188 3.484375 -0.171875 C 3.285156 0.015625 3.046875 0.109375 2.765625 0.109375 Z M 2.765625 0.109375 "/></g></g></g><g fill="#ffffff" fill-opacity="1"><g transform="translate(90.514624, 49.861543)"><g><path d="M 7.015625 0.21875 C 5.941406 0.21875 4.953125 -0.015625 4.046875 -0.484375 C 3.140625 -0.960938 2.414062 -1.644531 1.875 -2.53125 C 1.332031 -3.425781 1.0625 -4.472656 1.0625 -5.671875 C 1.0625 -6.867188 1.332031 -7.910156 1.875 -8.796875 C 2.414062 -9.691406 3.140625 -10.375 4.046875 -10.84375 C 4.953125 -11.320312 5.941406 -11.5625 7.015625 -11.5625 C 7.796875 -11.5625 8.472656 -11.460938 9.046875 -11.265625 C 9.617188 -11.066406 10.148438 -10.8125 10.640625 -10.5 C 10.929688 -10.3125 11.078125 -10.050781 11.078125 -9.71875 C 11.078125 -9.5 10.988281 -9.296875 10.8125 -9.109375 C 10.644531 -8.921875 10.453125 -8.828125 10.234375 -8.828125 C 10.066406 -8.828125 9.90625 -8.875 9.75 -8.96875 C 9.257812 -9.21875 8.835938 -9.394531 8.484375 -9.5 C 8.140625 -9.613281 7.707031 -9.671875 7.1875 -9.671875 C 5.90625 -9.671875 4.898438 -9.300781 4.171875 -8.5625 C 3.453125 -7.832031 3.09375 -6.867188 3.09375 -5.671875 C 3.09375 -4.472656 3.453125 -3.503906 4.171875 -2.765625 C 4.898438 -2.035156 5.90625 -1.671875 7.1875 -1.671875 C 7.707031 -1.671875 8.140625 -1.722656 8.484375 -1.828125 C 8.835938 -1.941406 9.257812 -2.125 9.75 -2.375 C 9.90625 -2.46875 10.066406 -2.515625 10.234375 -2.515625 C 10.453125 -2.515625 10.644531 -2.421875 10.8125 -2.234375 C 10.988281 -2.046875 11.078125 -1.84375 11.078125 -1.625 C 11.078125 -1.300781 10.929688 -1.039062 10.640625 -0.84375 C 10.148438 -0.53125 9.617188 -0.273438 9.046875 -0.078125 C 8.472656 0.117188 7.796875 0.21875 7.015625 0.21875 Z M 7.015625 0.21875 "/></g></g></g><g fill="#ffffff" fill-opacity="1"><g transform="translate(102.373981, 49.861543)"><g/></g></g><g fill="#ffffff" fill-opacity="1"><g transform="translate(108.159035, 49.861543)"><g><path d="M 6.765625 0.109375 C 6.484375 0.109375 6.242188 0.015625 6.046875 -0.171875 C 5.859375 -0.367188 5.765625 -0.609375 5.765625 -0.890625 L 5.765625 -13.640625 L 1.21875 -13.640625 C 0.957031 -13.640625 0.738281 -13.726562 0.5625 -13.90625 C 0.382812 -14.082031 0.296875 -14.304688 0.296875 -14.578125 C 0.296875 -14.835938 0.382812 -15.0625 0.5625 -15.25 C 0.738281 -15.4375 0.957031 -15.53125 1.21875 -15.53125 L 12.296875 -15.53125 C 12.566406 -15.53125 12.796875 -15.4375 12.984375 -15.25 C 13.171875 -15.0625 13.265625 -14.835938 13.265625 -14.578125 C 13.265625 -14.304688 13.171875 -14.082031 12.984375 -13.90625 C 12.796875 -13.726562 12.566406 -13.640625 12.296875 -13.640625 L 7.78125 -13.640625 L 7.78125 -0.890625 C 7.78125 -0.609375 7.679688 -0.367188 7.484375 -0.171875 C 7.285156 0.015625 7.046875 0.109375 6.765625 0.109375 Z M 6.765625 0.109375 "/></g></g></g><g fill="#ffffff" fill-opacity="1"><g transform="translate(121.709409, 49.861543)"><g><path d="M 6.828125 0.21875 C 5.015625 0.21875 3.597656 -0.296875 2.578125 -1.328125 C 1.566406 -2.359375 1.0625 -3.804688 1.0625 -5.671875 C 1.0625 -6.722656 1.253906 -7.691406 1.640625 -8.578125 C 2.023438 -9.472656 2.617188 -10.191406 3.421875 -10.734375 C 4.222656 -11.285156 5.210938 -11.5625 6.390625 -11.5625 C 7.484375 -11.5625 8.429688 -11.304688 9.234375 -10.796875 C 10.035156 -10.285156 10.644531 -9.601562 11.0625 -8.75 C 11.476562 -7.894531 11.6875 -6.96875 11.6875 -5.96875 C 11.6875 -5.6875 11.59375 -5.445312 11.40625 -5.25 C 11.21875 -5.0625 10.96875 -4.96875 10.65625 -4.96875 L 3.109375 -4.96875 C 3.234375 -3.925781 3.617188 -3.113281 4.265625 -2.53125 C 4.921875 -1.957031 5.835938 -1.671875 7.015625 -1.671875 C 7.628906 -1.671875 8.171875 -1.726562 8.640625 -1.84375 C 9.109375 -1.96875 9.566406 -2.140625 10.015625 -2.359375 C 10.128906 -2.421875 10.257812 -2.453125 10.40625 -2.453125 C 10.644531 -2.453125 10.851562 -2.367188 11.03125 -2.203125 C 11.207031 -2.035156 11.296875 -1.828125 11.296875 -1.578125 C 11.296875 -1.253906 11.101562 -0.976562 10.71875 -0.75 C 10.144531 -0.425781 9.578125 -0.179688 9.015625 -0.015625 C 8.453125 0.140625 7.722656 0.21875 6.828125 0.21875 Z M 9.671875 -6.609375 C 9.628906 -7.335938 9.441406 -7.945312 9.109375 -8.4375 C 8.773438 -8.925781 8.363281 -9.285156 7.875 -9.515625 C 7.382812 -9.742188 6.890625 -9.859375 6.390625 -9.859375 C 5.878906 -9.859375 5.378906 -9.742188 4.890625 -9.515625 C 4.398438 -9.285156 3.992188 -8.925781 3.671875 -8.4375 C 3.347656 -7.945312 3.160156 -7.335938 3.109375 -6.609375 Z M 9.671875 -6.609375 "/></g></g></g><g fill="#ffffff" fill-opacity="1"><g transform="translate(134.303023, 49.861543)"><g><path d="M 7.015625 0.21875 C 5.941406 0.21875 4.953125 -0.015625 4.046875 -0.484375 C 3.140625 -0.960938 2.414062 -1.644531 1.875 -2.53125 C 1.332031 -3.425781 1.0625 -4.472656 1.0625 -5.671875 C 1.0625 -6.867188 1.332031 -7.910156 1.875 -8.796875 C 2.414062 -9.691406 3.140625 -10.375 4.046875 -10.84375 C 4.953125 -11.320312 5.941406 -11.5625 7.015625 -11.5625 C 7.796875 -11.5625 8.472656 -11.460938 9.046875 -11.265625 C 9.617188 -11.066406 10.148438 -10.8125 10.640625 -10.5 C 10.929688 -10.3125 11.078125 -10.050781 11.078125 -9.71875 C 11.078125 -9.5 10.988281 -9.296875 10.8125 -9.109375 C 10.644531 -8.921875 10.453125 -8.828125 10.234375 -8.828125 C 10.066406 -8.828125 9.90625 -8.875 9.75 -8.96875 C 9.257812 -9.21875 8.835938 -9.394531 8.484375 -9.5 C 8.140625 -9.613281 7.707031 -9.671875 7.1875 -9.671875 C 5.90625 -9.671875 4.898438 -9.300781 4.171875 -8.5625 C 3.453125 -7.832031 3.09375 -6.867188 3.09375 -5.671875 C 3.09375 -4.472656 3.453125 -3.503906 4.171875 -2.765625 C 4.898438 -2.035156 5.90625 -1.671875 7.1875 -1.671875 C 7.707031 -1.671875 8.140625 -1.722656 8.484375 -1.828125 C 8.835938 -1.941406 9.257812 -2.125 9.75 -2.375 C 9.90625 -2.46875 10.066406 -2.515625 10.234375 -2.515625 C 10.453125 -2.515625 10.644531 -2.421875 10.8125 -2.234375 C 10.988281 -2.046875 11.078125 -1.84375 11.078125 -1.625 C 11.078125 -1.300781 10.929688 -1.039062 10.640625 -0.84375 C 10.148438 -0.53125 9.617188 -0.273438 9.046875 -0.078125 C 8.472656 0.117188 7.796875 0.21875 7.015625 0.21875 Z M 7.015625 0.21875 "/></g></g></g><g fill="#ffffff" fill-opacity="1"><g transform="translate(146.162381, 49.861543)"><g><path d="M 2.765625 0.109375 C 2.484375 0.109375 2.242188 0.015625 2.046875 -0.171875 C 1.847656 -0.367188 1.75 -0.609375 1.75 -0.890625 L 1.75 -15.328125 C 1.75 -15.609375 1.847656 -15.847656 2.046875 -16.046875 C 2.242188 -16.253906 2.484375 -16.359375 2.765625 -16.359375 C 3.046875 -16.359375 3.285156 -16.253906 3.484375 -16.046875 C 3.679688 -15.847656 3.78125 -15.609375 3.78125 -15.328125 L 3.78125 -9.515625 C 4.34375 -10.140625 4.953125 -10.632812 5.609375 -11 C 6.265625 -11.375 7.035156 -11.5625 7.921875 -11.5625 C 8.734375 -11.5625 9.441406 -11.367188 10.046875 -10.984375 C 10.648438 -10.597656 11.109375 -10.070312 11.421875 -9.40625 C 11.742188 -8.738281 11.90625 -8.003906 11.90625 -7.203125 L 11.90625 -0.890625 C 11.90625 -0.609375 11.800781 -0.367188 11.59375 -0.171875 C 11.394531 0.015625 11.15625 0.109375 10.875 0.109375 C 10.59375 0.109375 10.351562 0.015625 10.15625 -0.171875 C 9.96875 -0.367188 9.875 -0.609375 9.875 -0.890625 L 9.875 -6.984375 C 9.875 -8.796875 9.0625 -9.703125 7.4375 -9.703125 C 6.6875 -9.703125 6.019531 -9.507812 5.4375 -9.125 C 4.851562 -8.738281 4.300781 -8.21875 3.78125 -7.5625 L 3.78125 -0.890625 C 3.78125 -0.609375 3.679688 -0.367188 3.484375 -0.171875 C 3.285156 0.015625 3.046875 0.109375 2.765625 0.109375 Z M 2.765625 0.109375 "/></g></g></g><g fill="#ffffff" fill-opacity="1"><g transform="translate(40.117676, 61.810527)"><g><path d="M 4.28125 -1.796875 C 4.0625 -1.328125 3.535156 -1.011719 2.992188 -1.011719 C 2.136719 -1.011719 1.453125 -1.742188 1.453125 -2.640625 C 1.453125 -3.535156 2.136719 -4.273438 2.992188 -4.273438 C 3.527344 -4.273438 4.054688 -3.980469 4.273438 -3.503906 L 5.570312 -3.503906 C 5.214844 -4.585938 4.195312 -5.363281 2.992188 -5.363281 C 1.492188 -5.363281 0.273438 -4.140625 0.273438 -2.640625 C 0.273438 -1.140625 1.492188 0.078125 2.992188 0.078125 C 4.195312 0.078125 5.222656 -0.707031 5.578125 -1.796875 Z M 4.28125 -1.796875 "/></g></g></g><g fill="#ffffff" fill-opacity="1"><g transform="translate(48.611126, 61.810527)"><g><path d="M 2.402344 -2.5625 C 2.578125 -2.5625 2.75 -2.511719 2.867188 -2.371094 L 2.882812 -2.371094 L 2.882812 -3.425781 C 2.789062 -3.472656 2.632812 -3.503906 2.535156 -3.503906 C 2.105469 -3.503906 1.8125 -3.265625 1.632812 -3.007812 L 1.632812 -3.425781 L 0.464844 -3.425781 L 0.464844 0 L 1.632812 0 L 1.632812 -1.710938 C 1.632812 -2.121094 1.964844 -2.5625 2.402344 -2.5625 Z M 2.402344 -2.5625 "/></g></g></g><g fill="#ffffff" fill-opacity="1"><g transform="translate(54.291555, 61.810527)"><g><path d="M 1.523438 -2.121094 C 1.523438 -2.121094 1.5625 -2.757812 2.292969 -2.757812 C 3 -2.757812 3.054688 -2.121094 3.054688 -2.121094 Z M 4.171875 -1.789062 C 4.171875 -2.882812 3.308594 -3.503906 2.269531 -3.503906 C 1.117188 -3.503906 0.273438 -2.78125 0.273438 -1.710938 C 0.273438 -0.621094 1.089844 0.078125 2.269531 0.078125 C 3.179688 0.078125 3.910156 -0.371094 4.109375 -1.273438 L 2.921875 -1.273438 C 2.914062 -1.027344 2.65625 -0.753906 2.246094 -0.753906 C 1.789062 -0.753906 1.507812 -1.171875 1.507812 -1.570312 L 4.164062 -1.570312 C 4.164062 -1.640625 4.171875 -1.71875 4.171875 -1.789062 Z M 4.171875 -1.789062 "/></g></g></g><g fill="#ffffff" fill-opacity="1"><g transform="translate(61.456198, 61.810527)"><g><path d="M 3.148438 -1.710938 C 3.148438 -1.257812 2.796875 -0.855469 2.332031 -0.855469 C 1.863281 -0.855469 1.515625 -1.257812 1.515625 -1.710938 C 1.515625 -2.160156 1.863281 -2.5625 2.332031 -2.5625 C 2.796875 -2.5625 3.148438 -2.160156 3.148438 -1.710938 Z M 4.3125 -3.417969 L 3.148438 -3.417969 L 3.148438 -3.007812 C 2.84375 -3.378906 2.410156 -3.503906 1.972656 -3.503906 C 1.003906 -3.503906 0.273438 -2.65625 0.273438 -1.710938 C 0.273438 -0.761719 1.003906 0.078125 1.972656 0.078125 C 2.410156 0.078125 2.914062 -0.0625 3.148438 -0.410156 L 3.148438 0 L 4.3125 0 Z M 4.3125 -3.417969 "/></g></g></g><g fill="#ffffff" fill-opacity="1"><g transform="translate(68.954988, 61.810527)"><g><path d="M 1.933594 -2.527344 L 2.554688 -2.527344 L 2.554688 -3.425781 L 1.933594 -3.425781 L 1.933594 -4.730469 L 0.777344 -4.730469 L 0.777344 -3.425781 L 0.15625 -3.425781 L 0.15625 -2.527344 L 0.777344 -2.527344 L 0.777344 0 L 1.933594 0 Z M 1.933594 -2.527344 "/></g></g></g><g fill="#ffffff" fill-opacity="1"><g transform="translate(74.386752, 61.810527)"><g><path d="M 1.523438 -2.121094 C 1.523438 -2.121094 1.5625 -2.757812 2.292969 -2.757812 C 3 -2.757812 3.054688 -2.121094 3.054688 -2.121094 Z M 4.171875 -1.789062 C 4.171875 -2.882812 3.308594 -3.503906 2.269531 -3.503906 C 1.117188 -3.503906 0.273438 -2.78125 0.273438 -1.710938 C 0.273438 -0.621094 1.089844 0.078125 2.269531 0.078125 C 3.179688 0.078125 3.910156 -0.371094 4.109375 -1.273438 L 2.921875 -1.273438 C 2.914062 -1.027344 2.65625 -0.753906 2.246094 -0.753906 C 1.789062 -0.753906 1.507812 -1.171875 1.507812 -1.570312 L 4.164062 -1.570312 C 4.164062 -1.640625 4.171875 -1.71875 4.171875 -1.789062 Z M 4.171875 -1.789062 "/></g></g></g><g fill="#ffffff" fill-opacity="1"><g transform="translate(81.551396, 61.810527)"><g><path d="M 0.402344 -0.597656 C 0.402344 -0.226562 0.707031 0.078125 1.089844 0.078125 C 1.460938 0.078125 1.773438 -0.226562 1.773438 -0.597656 C 1.773438 -0.980469 1.460938 -1.28125 1.089844 -1.28125 C 0.707031 -1.28125 0.402344 -0.980469 0.402344 -0.597656 Z M 0.402344 -0.597656 "/></g></g></g><g fill="#ffffff" fill-opacity="1"><g transform="translate(86.446978, 61.810527)"><g/></g></g><g fill="#ffffff" fill-opacity="1"><g transform="translate(91.109425, 61.810527)"><g><path d="M 4.28125 -1.796875 C 4.0625 -1.328125 3.535156 -1.011719 2.992188 -1.011719 C 2.136719 -1.011719 1.453125 -1.742188 1.453125 -2.640625 C 1.453125 -3.535156 2.136719 -4.273438 2.992188 -4.273438 C 3.527344 -4.273438 4.054688 -3.980469 4.273438 -3.503906 L 5.570312 -3.503906 C 5.214844 -4.585938 4.195312 -5.363281 2.992188 -5.363281 C 1.492188 -5.363281 0.273438 -4.140625 0.273438 -2.640625 C 0.273438 -1.140625 1.492188 0.078125 2.992188 0.078125 C 4.195312 0.078125 5.222656 -0.707031 5.578125 -1.796875 Z M 4.28125 -1.796875 "/></g></g></g><g fill="#ffffff" fill-opacity="1"><g transform="translate(99.602873, 61.810527)"><g><path d="M 2.230469 -0.808594 C 1.601562 -0.808594 1.429688 -1.265625 1.429688 -1.703125 C 1.429688 -2.128906 1.617188 -2.585938 2.230469 -2.585938 C 2.835938 -2.585938 3.023438 -2.128906 3.023438 -1.703125 C 3.023438 -1.265625 2.851562 -0.808594 2.230469 -0.808594 Z M 2.230469 -3.496094 C 1.15625 -3.496094 0.273438 -2.78125 0.273438 -1.710938 C 0.273438 -0.613281 1.132812 0.0703125 2.230469 0.0703125 C 3.316406 0.0703125 4.179688 -0.613281 4.179688 -1.710938 C 4.179688 -2.78125 3.292969 -3.496094 2.230469 -3.496094 Z M 2.230469 -3.496094 "/></g></g></g><g fill="#ffffff" fill-opacity="1"><g transform="translate(106.775291, 61.810527)"><g><path d="M 3.972656 -1.941406 C 3.972656 -2.875 3.597656 -3.503906 2.679688 -3.503906 C 2.230469 -3.503906 1.863281 -3.300781 1.632812 -3.007812 L 1.632812 -3.425781 L 0.464844 -3.425781 L 0.464844 0 L 1.632812 0 L 1.632812 -1.710938 C 1.632812 -2.175781 1.917969 -2.5625 2.285156 -2.5625 C 2.648438 -2.5625 2.804688 -2.347656 2.804688 -1.941406 L 2.804688 0 L 3.972656 0 Z M 3.972656 -1.941406 "/></g></g></g><g fill="#ffffff" fill-opacity="1"><g transform="translate(113.8156, 61.810527)"><g><path d="M 3.972656 -1.941406 C 3.972656 -2.875 3.597656 -3.503906 2.679688 -3.503906 C 2.230469 -3.503906 1.863281 -3.300781 1.632812 -3.007812 L 1.632812 -3.425781 L 0.464844 -3.425781 L 0.464844 0 L 1.632812 0 L 1.632812 -1.710938 C 1.632812 -2.175781 1.917969 -2.5625 2.285156 -2.5625 C 2.648438 -2.5625 2.804688 -2.347656 2.804688 -1.941406 L 2.804688 0 L 3.972656 0 Z M 3.972656 -1.941406 "/></g></g></g><g fill="#ffffff" fill-opacity="1"><g transform="translate(120.85591, 61.810527)"><g><path d="M 1.523438 -2.121094 C 1.523438 -2.121094 1.5625 -2.757812 2.292969 -2.757812 C 3 -2.757812 3.054688 -2.121094 3.054688 -2.121094 Z M 4.171875 -1.789062 C 4.171875 -2.882812 3.308594 -3.503906 2.269531 -3.503906 C 1.117188 -3.503906 0.273438 -2.78125 0.273438 -1.710938 C 0.273438 -0.621094 1.089844 0.078125 2.269531 0.078125 C 3.179688 0.078125 3.910156 -0.371094 4.109375 -1.273438 L 2.921875 -1.273438 C 2.914062 -1.027344 2.65625 -0.753906 2.246094 -0.753906 C 1.789062 -0.753906 1.507812 -1.171875 1.507812 -1.570312 L 4.164062 -1.570312 C 4.164062 -1.640625 4.171875 -1.71875 4.171875 -1.789062 Z M 4.171875 -1.789062 "/></g></g></g><g fill="#ffffff" fill-opacity="1"><g transform="translate(128.020556, 61.810527)"><g><path d="M 2.214844 -2.59375 C 2.617188 -2.59375 2.875 -2.386719 2.890625 -2.050781 L 4.046875 -2.050781 C 3.996094 -2.84375 3.285156 -3.503906 2.175781 -3.503906 C 1.035156 -3.503906 0.273438 -2.6875 0.273438 -1.710938 C 0.273438 -0.730469 0.988281 0.078125 2.175781 0.078125 C 3.21875 0.078125 3.910156 -0.511719 4.023438 -1.273438 L 2.890625 -1.273438 C 2.851562 -0.964844 2.570312 -0.808594 2.214844 -0.808594 C 1.671875 -0.808594 1.515625 -1.304688 1.515625 -1.703125 C 1.515625 -2.089844 1.6875 -2.59375 2.214844 -2.59375 Z M 2.214844 -2.59375 "/></g></g></g><g fill="#ffffff" fill-opacity="1"><g transform="translate(135.02979, 61.810527)"><g><path d="M 1.933594 -2.527344 L 2.554688 -2.527344 L 2.554688 -3.425781 L 1.933594 -3.425781 L 1.933594 -4.730469 L 0.777344 -4.730469 L 0.777344 -3.425781 L 0.15625 -3.425781 L 0.15625 -2.527344 L 0.777344 -2.527344 L 0.777344 0 L 1.933594 0 Z M 1.933594 -2.527344 "/></g></g></g><g fill="#ffffff" fill-opacity="1"><g transform="translate(140.461551, 61.810527)"><g><path d="M 0.402344 -0.597656 C 0.402344 -0.226562 0.707031 0.078125 1.089844 0.078125 C 1.460938 0.078125 1.773438 -0.226562 1.773438 -0.597656 C 1.773438 -0.980469 1.460938 -1.28125 1.089844 -1.28125 C 0.707031 -1.28125 0.402344 -0.980469 0.402344 -0.597656 Z M 0.402344 -0.597656 "/></g></g></g><g fill="#ffffff" fill-opacity="1"><g transform="translate(145.357131, 61.810527)"><g/></g></g><g fill="#ffffff" fill-opacity="1"><g transform="translate(150.019578, 61.810527)"><g><path d="M 3.109375 -4.273438 C 3.621094 -4.273438 4.148438 -4.0625 4.40625 -3.503906 L 5.6875 -3.503906 C 5.324219 -4.601562 4.273438 -5.363281 3.109375 -5.363281 C 1.617188 -5.363281 0.386719 -4.132812 0.386719 -2.640625 C 0.386719 -1.148438 1.617188 0.078125 3.109375 0.078125 C 4.617188 0.078125 5.820312 -1.140625 5.820312 -2.640625 L 5.820312 -2.820312 L 3.21875 -2.820312 L 3.21875 -1.941406 L 4.5625 -1.941406 C 4.273438 -1.140625 3.621094 -0.980469 3.109375 -0.980469 C 2.269531 -0.980469 1.570312 -1.734375 1.570312 -2.625 C 1.570312 -3.519531 2.269531 -4.273438 3.109375 -4.273438 Z M 3.109375 -4.273438 "/></g></g></g><g fill="#ffffff" fill-opacity="1"><g transform="translate(158.831629, 61.810527)"><g><path d="M 2.402344 -2.5625 C 2.578125 -2.5625 2.75 -2.511719 2.867188 -2.371094 L 2.882812 -2.371094 L 2.882812 -3.425781 C 2.789062 -3.472656 2.632812 -3.503906 2.535156 -3.503906 C 2.105469 -3.503906 1.8125 -3.265625 1.632812 -3.007812 L 1.632812 -3.425781 L 0.464844 -3.425781 L 0.464844 0 L 1.632812 0 L 1.632812 -1.710938 C 1.632812 -2.121094 1.964844 -2.5625 2.402344 -2.5625 Z M 2.402344 -2.5625 "/></g></g></g><g fill="#ffffff" fill-opacity="1"><g transform="translate(164.512056, 61.810527)"><g><path d="M 2.230469 -0.808594 C 1.601562 -0.808594 1.429688 -1.265625 1.429688 -1.703125 C 1.429688 -2.128906 1.617188 -2.585938 2.230469 -2.585938 C 2.835938 -2.585938 3.023438 -2.128906 3.023438 -1.703125 C 3.023438 -1.265625 2.851562 -0.808594 2.230469 -0.808594 Z M 2.230469 -3.496094 C 1.15625 -3.496094 0.273438 -2.78125 0.273438 -1.710938 C 0.273438 -0.613281 1.132812 0.0703125 2.230469 0.0703125 C 3.316406 0.0703125 4.179688 -0.613281 4.179688 -1.710938 C 4.179688 -2.78125 3.292969 -3.496094 2.230469 -3.496094 Z M 2.230469 -3.496094 "/></g></g></g><g fill="#ffffff" fill-opacity="1"><g transform="translate(171.684474, 61.810527)"><g><path d="M 6.238281 -3.425781 L 4.957031 -3.425781 L 4.25 -1.1875 L 3.488281 -3.425781 L 2.585938 -3.425781 L 1.832031 -1.1875 L 1.132812 -3.425781 L -0.140625 -3.425781 L 1.042969 0 L 2.378906 0 L 3.039062 -2.136719 L 3.707031 0 L 5.035156 0 Z M 6.238281 -3.425781 "/></g></g></g><g fill="#ffffff" fill-opacity="1"><g transform="translate(170.033676, 48.226365)"><g><path d="M 3.535156 -5.542969 L 3.535156 -3.332031 L 1.710938 -3.332031 L 1.710938 -5.542969 L 0.488281 -5.542969 L 0.488281 0 L 1.710938 0 L 1.710938 -2.222656 L 3.535156 -2.222656 L 3.535156 0 L 4.839844 0 L 4.839844 -5.542969 Z M 3.535156 -5.542969 "/></g></g></g><g fill="#ffffff" fill-opacity="1"><g transform="translate(178.214973, 48.226365)"><g><path d="M 3.722656 -5.542969 L 3.722656 -2.339844 C 3.722656 -1.574219 3.496094 -1.140625 2.65625 -1.140625 C 1.824219 -1.140625 1.589844 -1.574219 1.589844 -2.339844 L 1.589844 -5.542969 L 0.367188 -5.542969 L 0.367188 -2.160156 C 0.367188 -0.683594 1.214844 0.0820312 2.65625 0.0820312 C 4.097656 0.0820312 4.945312 -0.683594 4.945312 -2.160156 L 4.945312 -5.542969 Z M 3.722656 -5.542969 "/></g></g></g><g fill="#ffffff" fill-opacity="1"><g transform="translate(186.37997, 48.226365)"><g><path d="M 3.160156 -1.621094 C 3.160156 -1.253906 2.851562 -0.953125 2.484375 -0.953125 L 1.710938 -0.953125 L 1.710938 -2.289062 L 2.484375 -2.289062 C 2.851562 -2.289062 3.160156 -1.980469 3.160156 -1.621094 Z M 2.777344 -3.9375 C 2.777344 -3.585938 2.484375 -3.292969 2.136719 -3.292969 L 1.710938 -3.292969 L 1.710938 -4.578125 L 2.136719 -4.578125 C 2.484375 -4.578125 2.777344 -4.292969 2.777344 -3.9375 Z M 4.410156 -1.589844 C 4.410156 -2.339844 3.902344 -2.835938 3.285156 -2.980469 C 3.699219 -3.167969 3.945312 -3.59375 3.945312 -4.15625 C 3.945312 -4.914062 3.339844 -5.542969 2.394531 -5.542969 L 0.488281 -5.542969 L 0.488281 0 L 2.730469 0 C 3.789062 0 4.410156 -0.636719 4.410156 -1.589844 Z M 4.410156 -1.589844 "/></g></g></g></svg>